<svg id="Layer_1" data-name="Layer 1" xmlns="http://www.w3.org/2000/svg" xmlns:xlink="http://www.w3.org/1999/xlink" viewBox="0 0 913.1 223.81"><defs><style>.cls-1{fill:url(#radial-gradient);}.cls-2{fill:url(#radial-gradient-2);}.cls-3{fill:#0d035a;}.cls-4{fill:url(#radial-gradient-3);}.cls-5{fill:url(#radial-gradient-4);}</style><radialGradient id="radial-gradient" cx="97.71" cy="111.58" r="73.17" gradientUnits="userSpaceOnUse"><stop offset="0" stop-color="#0d035a"/><stop offset="0.13" stop-color="#150561"/><stop offset="0.26" stop-color="#22096b"/><stop offset="0.36" stop-color="#300d76"/><stop offset="0.55" stop-color="#561994"/><stop offset="0.8" stop-color="#922bc3"/><stop offset="1" stop-color="#c53aeb"/></radialGradient><radialGradient id="radial-gradient-2" cx="97.72" cy="111.58" r="73.17" xlink:href="#radial-gradient"/><radialGradient id="radial-gradient-3" cx="588.82" cy="172.05" r="51.21" gradientUnits="userSpaceOnUse"><stop offset="0" stop-color="#c53aeb"/><stop offset="0.2" stop-color="#922bc3"/><stop offset="0.45" stop-color="#561994"/><stop offset="0.64" stop-color="#300d76"/><stop offset="0.74" stop-color="#22096b"/><stop offset="0.87" stop-color="#150561"/><stop offset="1" stop-color="#0d035a"/></radialGradient><radialGradient id="radial-gradient-4" cx="653.75" cy="37.95" r="52.7" xlink:href="#radial-gradient-3"/></defs><path class="cls-1" d="M164,144.73h0c-.28-.28-.56-.54-.85-.8l0,0c-.27-.24-.53-.47-.81-.7s-.51-.41-.78-.6a3.9,3.9,0,0,0-.46-.34,22.16,22.16,0,0,0-3.56-2.1l-.54-.25c-.48-.22-.94-.41-1.42-.58-.24-.09-.47-.17-.71-.24a13.51,13.51,0,0,0-1.45-.43,25,25,0,0,0-2.94-.58h0c-.49-.05-1-.11-1.47-.14s-1,0-1.51,0-1,0-1.49,0c-.75.05-1.5.13-2.24.25s-1.48.24-2.21.43a16.21,16.21,0,0,1-22.06-17.31,18,18,0,0,1,.4-1.94l0-.14.09-.32a5.05,5.05,0,0,1,.18-.55.19.19,0,0,1,0-.08l.27-1a18.84,18.84,0,0,0,.46-2.4c0-.25.08-.51.1-.78a3.34,3.34,0,0,0,.06-.65,5.34,5.34,0,0,0,.05-.69c0-.39,0-.79,0-1.19s0-.63,0-.93a1.78,1.78,0,0,0,0-.25,6.33,6.33,0,0,0-.05-.76c0-.19,0-.38,0-.56s-.06-.58-.11-.86a10.06,10.06,0,0,0-.18-1.12c-.08-.43-.18-.86-.29-1.29s-.16-.6-.25-.9-.22-.73-.35-1.08-.21-.6-.33-.89c0-.13-.1-.26-.15-.39s-.23-.53-.35-.79a23.23,23.23,0,0,0-1.25-2.36,24.26,24.26,0,0,0-1.85-2.61c-.26-.31-.52-.61-.79-.91l-.11-.11,0,0c-.22-.25-.45-.5-.7-.74s-.57-.56-.87-.83-.6-.53-.91-.78a23.2,23.2,0,0,0-1.9-1.4c-.33-.21-.65-.42-1-.61s-.66-.39-1-.57h0c-.31-.16-.62-.32-.93-.46s-.77-.34-1.15-.51-.69-.27-1-.38v0c-.37-.12-.72-.24-1.07-.34l-.83-.22c-.45-.13-.92-.23-1.37-.32s-.77-.13-1.16-.18a6.93,6.93,0,0,0-.78-.1q-.33,0-.66-.06l-.64,0c-.41,0-.82,0-1.24,0s-.82,0-1.22,0c-.21,0-.43,0-.65,0l-.79.08-.56.07q-.63.09-1.26.21c-.47.09-.92.2-1.38.32h-.09a.41.41,0,0,0,0-.12A16.14,16.14,0,0,1,70.11,69.61l0-.13c.1-.38.22-.74.35-1.1.06-.2.12-.4.17-.61a23.43,23.43,0,0,0-6.11-22.49A23.12,23.12,0,0,0,60.45,42a23.44,23.44,0,1,0-6.59,42.56s0,0,0,0a16.35,16.35,0,0,1,2.57-.82A16.13,16.13,0,0,1,76,102.46c-.07.35-.15.69-.23,1,0,.05,0,.11,0,.15a8.44,8.44,0,0,1-.31,1c0,.17-.11.32-.17.49s-.1.33-.14.5,0,.06,0,.09c-.12.45-.23.91-.32,1.38s-.15.84-.2,1.26c0,.18-.06.37-.08.56s-.05.53-.08.79,0,.44,0,.65a20.19,20.19,0,0,0,0,2.46c0,.22,0,.44,0,.64s0,.44.06.66.06.52.1.78.11.77.18,1.16.19.92.32,1.37c.07.28.15.55.22.83s.22.7.35,1.07h0c.12.36.24.7.38,1.05s.33.77.51,1.15.3.62.46.93h0c.17.34.37.67.56,1s.4.66.61,1a23.2,23.2,0,0,0,1.4,1.9c.26.31.51.61.78.91s.54.58.83.87.58.57.87.83.56.5.84.73.51.41.78.6a5.48,5.48,0,0,0,.46.34,21.51,21.51,0,0,0,3.48,2.06l.52.25c.61.27,1.24.52,1.87.74l1,.34c.3.08.59.17.9.24s.82.2,1.22.29c.59.11,1.17.21,1.77.27a7,7,0,0,0,.92.09c.23,0,.47,0,.7.05a20.19,20.19,0,0,0,2.91,0,9.14,9.14,0,0,0,1-.1,4.52,4.52,0,0,0,.53-.06,3.61,3.61,0,0,0,.49-.07l.79-.14c.39-.07.78-.15,1.15-.25l.29-.08h0a16.27,16.27,0,0,1,2.45-.79l.11,0a16.13,16.13,0,0,1,19.25,19.73v.05a16.63,16.63,0,0,1-.57,1.77,1.78,1.78,0,0,0-.1.38,23.09,23.09,0,0,0-.73,4.45,25,25,0,0,0,0,3c0,.48.09,1,.14,1.47v0a25,25,0,0,0,.58,2.94c.12.5.27,1,.43,1.45.07.24.16.47.24.71.17.48.36.94.58,1.41.08.19.16.37.25.54a21.82,21.82,0,0,0,2.1,3.57c.1.16.23.31.34.46s.4.53.6.78.47.54.7.81l0,0c.26.29.52.57.81.85h0A23.45,23.45,0,0,0,164,144.73Z"/><path class="cls-2" d="M164,45.28a23.44,23.44,0,0,0-39.27,22.45s0,0,0,0a15.78,15.78,0,0,1,.82,2.58,16.23,16.23,0,0,1-4.31,15,16.12,16.12,0,0,1-14.44,4.44c-.34-.07-.69-.15-1-.24a.66.66,0,0,1-.15,0c-.34-.09-.68-.19-1-.31l-.49-.17-.49-.15h-.1c-.45-.12-.91-.23-1.38-.32s-.84-.15-1.26-.21l-.56-.07-.79-.08c-.22,0-.43,0-.65,0q-1.23-.06-2.46,0l-.64,0c-.22,0-.44,0-.65.06a6.82,6.82,0,0,0-.79.1c-.39,0-.77.11-1.15.18s-.93.19-1.37.32l-.83.22c-.36.1-.71.22-1.08.34v0c-.36.11-.7.24-1,.38s-.77.33-1.15.51-.62.3-.93.46h0c-.34.18-.67.38-1,.57s-.66.4-1,.61c-.65.43-1.28.9-1.9,1.4-.3.25-.61.51-.91.78s-.58.54-.87.83-.56.58-.83.87l-.73.84c-.21.25-.4.51-.59.78a4,4,0,0,0-.35.46,22.26,22.26,0,0,0-2.06,3.48c-.08.17-.16.35-.25.52-.27.61-.52,1.23-.74,1.87-.12.35-.23.69-.34,1s-.17.59-.24.9-.2.82-.28,1.22a17.61,17.61,0,0,0-.28,1.77c0,.3-.07.6-.09.92a5.48,5.48,0,0,0,0,.7,17.67,17.67,0,0,0,0,2.91,7.44,7.44,0,0,0,.09,1,4.52,4.52,0,0,0,.06.53,3.61,3.61,0,0,0,.07.49c0,.26.09.52.14.79s.15.77.25,1.15c0,.1.06.19.08.29h0a15.91,15.91,0,0,1,.79,2.45l0,.11a16.12,16.12,0,0,1-19.73,19.25h-.05a15.26,15.26,0,0,1-1.77-.58,2.34,2.34,0,0,0-.38-.09,23.09,23.09,0,0,0-4.45-.73,24.86,24.86,0,0,0-3,0c-.49,0-1,.09-1.48.14h0a25,25,0,0,0-2.94.58,13.51,13.51,0,0,0-1.45.43c-.24.07-.47.15-.71.24-.48.17-.94.36-1.41.58-.19.08-.37.16-.54.25a21.73,21.73,0,0,0-3.56,2.1,4,4,0,0,0-.47.34c-.26.19-.53.39-.78.6l-.81.7,0,0c-.28.26-.57.52-.85.8h0a23.44,23.44,0,1,0,33.15,33.16h0c.28-.28.55-.56.8-.85l0,0c.24-.27.47-.53.7-.81s.41-.52.6-.78.24-.3.35-.46a21.07,21.07,0,0,0,2.09-3.57c.09-.17.17-.35.26-.54.21-.47.4-.93.57-1.41.09-.24.17-.47.24-.71a13.51,13.51,0,0,0,.43-1.45,25,25,0,0,0,.58-2.94v0c.06-.49.11-1,.14-1.47s0-1,0-1.51,0-1,0-1.49c0-.75-.13-1.5-.25-2.25s-.27-1.5-.46-2.22a16.23,16.23,0,0,1,17.34-22,16.45,16.45,0,0,1,1.95.4l.13,0,.32.1A4.43,4.43,0,0,1,91,134l.08,0,1,.27a18.84,18.84,0,0,0,2.4.46c.25,0,.51.08.78.1a3.52,3.52,0,0,0,.66.06,5.06,5.06,0,0,0,.68.05,11.82,11.82,0,0,0,1.19,0c.32,0,.64,0,.93,0h.25c.26,0,.51,0,.76-.05l.56-.05c.29,0,.58-.06.87-.11s.74-.11,1.11-.18.86-.18,1.29-.29l.91-.25c.36-.11.72-.22,1.08-.35l.89-.33.38-.15.79-.35a22.31,22.31,0,0,0,2.36-1.26,22,22,0,0,0,2.61-1.84l.91-.79.11-.11,0,0c.25-.22.5-.45.74-.7s.57-.58.83-.87.53-.6.79-.91c.49-.61,1-1.25,1.4-1.9.2-.33.41-.65.6-1s.39-.66.57-1h0q.24-.47.45-.93c.18-.38.34-.77.51-1.15s.27-.69.38-1.05h0c.12-.37.24-.72.34-1.07s.15-.55.22-.83c.13-.45.23-.92.32-1.37s.13-.77.18-1.16a6.93,6.93,0,0,0,.1-.78q0-.33.06-.66a6.39,6.39,0,0,0,.05-.64c0-.42,0-.83,0-1.24s0-.82,0-1.22c0-.21,0-.43,0-.65s0-.52-.08-.79,0-.38-.07-.56c-.06-.42-.12-.84-.21-1.26s-.2-.93-.32-1.38c0,0,0-.06,0-.09h.12a16.19,16.19,0,0,1-1.17-6.85A16.15,16.15,0,0,1,139.69,84l.14,0c.37.1.73.22,1.09.35l.61.17A23.45,23.45,0,0,0,164,78.43a23.06,23.06,0,0,0,3.27-4.11A23.46,23.46,0,0,0,164,45.28Z"/><path class="cls-3" d="M252.13,77a51.79,51.79,0,0,1,38.19,15.93,51.81,51.81,0,0,1,15.93,38.2,52,52,0,0,1-15.93,38.33,51.77,51.77,0,0,1-38.18,15.93,54,54,0,0,1-37-14.6A52.39,52.39,0,0,1,198,134.36h-.14v-83a12.75,12.75,0,0,1,12.76-12.75h0a12.75,12.75,0,0,1,12.75,12.75V85.23A53,53,0,0,1,252.13,77Zm0,82.88a28.73,28.73,0,0,0,20.24-49,28.73,28.73,0,0,0-40.63,40.63A28,28,0,0,0,252.13,159.87Z"/><path class="cls-3" d="M332.5,38.66h0a12.75,12.75,0,0,1,12.76,12.75V172.62a12.76,12.76,0,0,1-12.76,12.76h0a12.75,12.75,0,0,1-12.75-12.76V51.41A12.75,12.75,0,0,1,332.5,38.66Z"/><path class="cls-3" d="M454.39,77h0a12.76,12.76,0,0,1,12.76,12.76v41.37a52,52,0,0,1-15.93,38.33,53.92,53.92,0,0,1-76.53,0,52,52,0,0,1-15.93-38.33V89.75A12.75,12.75,0,0,1,371.51,77h0a12.76,12.76,0,0,1,12.76,12.76v41.37a28.68,28.68,0,1,0,57.36,0V89.75A12.76,12.76,0,0,1,454.39,77Z"/><path class="cls-4" d="M576,159.74a12.74,12.74,0,0,0-11.06,6.3,13.68,13.68,0,0,1-.66,1.33,11.15,11.15,0,0,1-1.66,1.93,8.41,8.41,0,0,1-5.36,2.16,8.74,8.74,0,0,1-7.63-4.42c-.06-.06-.06-.06-.06-.11a1.62,1.62,0,0,1-.27-.56,1.05,1.05,0,0,1-.17-.27,12.78,12.78,0,0,0-9.62-6.25H534.9q-17.82,0-25.76-15.92H576.2A12.84,12.84,0,0,0,589,131.1a51.9,51.9,0,0,0-15.92-38.2,53.91,53.91,0,0,0-76.52,0,51.87,51.87,0,0,0-15.92,38.2,53.82,53.82,0,0,0,14.59,37c9.9,10.61,22.06,16.47,36.38,17.3H538a5.85,5.85,0,0,0,1.38-.11,12.64,12.64,0,0,0,9.68-6.19h.05a5.33,5.33,0,0,1,.66-1.33,8,8,0,0,1,1.66-1.93,8.67,8.67,0,0,1,5.59-2.21,9,9,0,0,1,7.41,4.47s0,.06.05.06c.11.17.17.39.28.55a1.39,1.39,0,0,0,.16.28A12.73,12.73,0,0,0,576,185.34a11.6,11.6,0,0,0,2.82-.33A12.8,12.8,0,0,0,576,159.74ZM534.9,102.52q17.67,0,25.66,15.92H509.14Q517.11,102.53,534.9,102.52Z"/><path class="cls-3" d="M615.28,38.66h0A12.75,12.75,0,0,1,628,51.41V172.62a12.76,12.76,0,0,1-12.76,12.76h0a12.75,12.75,0,0,1-12.75-12.76V51.41A12.75,12.75,0,0,1,615.28,38.66Z"/><path class="cls-3" d="M734.81,77A51.83,51.83,0,0,1,773,92.92a51.84,51.84,0,0,1,15.92,38.2A52,52,0,0,1,773,169.45a51.81,51.81,0,0,1-38.19,15.93,54,54,0,0,1-37-14.6,52.39,52.39,0,0,1-17.13-36.42h-.13v-83A12.75,12.75,0,0,1,693.3,38.66h0a12.75,12.75,0,0,1,12.76,12.75V85.23A52.92,52.92,0,0,1,734.81,77Zm0,82.88a28.73,28.73,0,0,0,20.24-49,28.73,28.73,0,0,0-40.62,40.63A28,28,0,0,0,734.81,159.87Z"/><path class="cls-3" d="M855.07,118.43a33.65,33.65,0,0,1,33.48,33.47,33.65,33.65,0,0,1-33.48,33.48H815.19a12.76,12.76,0,0,1-12.76-12.76h0a12.75,12.75,0,0,1,12.76-12.75h39.88a7.52,7.52,0,0,0,5.54-2.3,7.82,7.82,0,0,0,0-11.33,7.56,7.56,0,0,0-5.54-2.3H835.91a33.63,33.63,0,0,1-33.48-33.47A33.63,33.63,0,0,1,835.91,77h36.64a12.76,12.76,0,0,1,12.76,12.76h0a12.75,12.75,0,0,1-12.76,12.75H835.91a8,8,0,0,0-5.67,2.3,7.71,7.71,0,0,0-2.3,5.67,7.84,7.84,0,0,0,8,8Z"/><path class="cls-5" d="M667.05,89.23a12.9,12.9,0,0,0-6.26-10.9h0A8.35,8.35,0,0,1,657.53,76a8.52,8.52,0,0,1,2.23-13.12l.07,0c.18-.1.37-.19.56-.28l.29-.17a12.72,12.72,0,1,0-12.88,0h0a8.68,8.68,0,0,1,3.24,2.33,8.62,8.62,0,0,1,2.15,5.64,8.75,8.75,0,0,1-4.38,7.48l-.08,0c-.17.1-.37.19-.55.28l-.3.17a12.74,12.74,0,0,0-6.31,10.81l-.05,84.92c0,6.26,5.71,11.33,12.75,11.33s12.76-5.07,12.76-11.33Z"/><path class="cls-3" d="M539.49,159.85h-3.21a16.73,16.73,0,0,1,1.72-.11A12.45,12.45,0,0,1,539.49,159.85Z"/><path class="cls-3" d="M539.38,185.28v.11H538A5.85,5.85,0,0,0,539.38,185.28Z"/></svg>